<svg version="1.1"
     baseProfile="full"
     xmlns="http://www.w3.org/2000/svg"
     xmlns:xlink="http://www.w3.org/1999/xlink"
     xmlns:ev="http://www.w3.org/2001/xml-events"
     viewBox="0 0 19.05 15.06">
    <path fill="#fff" d="M0,13.35a11.28,11.28,0,0,0,6,1.71A10.89,10.89,0,0,0,17.11,4.24c0-.16,0-0.33,0-0.49a7.81,7.81,0,0,0,1.95-2,7.9,7.9,0,0,1-2.24.6A3.83,3.83,0,0,0,18.52.28,8,8,0,0,1,16,1.2,4,4,0,0,0,13.19,0,3.86,3.86,0,0,0,9.28,3.8a3.71,3.71,0,0,0,.1.87,11.19,11.19,0,0,1-8.05-4A3.71,3.71,0,0,0,.8,2.61,3.77,3.77,0,0,0,2.54,5.77,4,4,0,0,1,.76,5.3v0A3.83,3.83,0,0,0,3.9,9.07a4,4,0,0,1-1,.13,3.93,3.93,0,0,1-.74-0.07,3.89,3.89,0,0,0,3.65,2.64A8,8,0,0,1,.93,13.4,7.84,7.84,0,0,1,0,13.35"></path>
</svg>