<svg version="1.1"
     baseProfile="full"
     xmlns="http://www.w3.org/2000/svg"
     xmlns:xlink="http://www.w3.org/1999/xlink"
     xmlns:ev="http://www.w3.org/2001/xml-events"
     viewBox="0 0 24.41 13.31">
    <path fill="#fff" d="M12.45,13.25H13.9A1.26,1.26,0,0,0,14.57,13a1,1,0,0,0,.2-0.61s0-1.87.88-2.15,2,1.81,3.27,2.61a2.4,2.4,0,0,0,1.62.47l3.26,0s1.71-.1.9-1.38a10.54,10.54,0,0,0-2.42-2.68c-2-1.81-1.77-1.52.69-4.66,1.5-1.91,2.1-3.08,1.91-3.57S23.6,0.61,23.6.61l-3.67,0a0.87,0.87,0,0,0-.47.08,1,1,0,0,0-.32.38,20,20,0,0,1-1.36,2.73c-1.63,2.65-2.29,2.79-2.56,2.63-0.62-.38-0.47-1.54-0.47-2.36,0-2.57.41-3.64-.79-3.92A6.6,6.6,0,0,0,12.24,0a8.25,8.25,0,0,0-3,.3C8.78,0.5,8.45.93,8.65,1a1.68,1.68,0,0,1,1.08.52,3.26,3.26,0,0,1,.36,1.59s0.22,3-.51,3.4C9.1,6.72,8.42,6.2,7,3.79A21.93,21.93,0,0,1,5.65,1.2,1,1,0,0,0,5.35.8,1.57,1.57,0,0,0,4.78.59l-3.49,0A1.23,1.23,0,0,0,.58.84a0.7,0.7,0,0,0,0,.59s2.73,6.1,5.82,9.18a8.59,8.59,0,0,0,6.06,2.64" transform="translate(-0.5 0)"></path>
</svg>